<svg width="600" height="500" viewBox="0 0 600 500" fill="none" xmlns="http://www.w3.org/2000/svg">
  <!-- Background -->
  <rect width="600" height="500" fill="#0f1419"/>
  
  <!-- Modern workspace environment -->
  <rect x="40" y="100" width="520" height="340" fill="#1f2937" stroke="#ec4899" stroke-width="2" rx="12"/>
  
  <!-- Vertical divider wall -->
  <rect x="295" y="100" width="10" height="340" fill="#2d3748"/>
  
  <!-- Left side - Designer working -->
  <circle cx="130" cy="190" r="25" fill="#d4a574"/>
  <!-- Curly hair -->
  <path d="M 105 173 Q 105 140 130 140 Q 155 140 155 173" fill="#2d2416"/>
  <!-- Creative casual shirt -->
  <rect x="112" y="220" width="36" height="62" fill="#8b5cf6" rx="4"/>
  <!-- Arms at desk -->
  <rect x="85" y="235" width="27" height="14" fill="#d4a574" rx="6"/>
  <rect x="148" y="235" width="27" height="14" fill="#d4a574" rx="6"/>
  <!-- Hands -->
  <circle cx="81" cy="242" r="6" fill="#d4a574"/>
  <circle cx="177" cy="242" r="6" fill="#d4a574"/>
  <!-- Drawing tablet -->
  <rect x="85" y="295" width="90" height="60" fill="#1e293b" stroke="#64748b" stroke-width="2" rx="4"/>
  <rect x="90" y="300" width="80" height="50" fill="#0f172a"/>
  <circle cx="130" cy="330" r="3" fill="#ec4899"/>
  <!-- Stylus -->
  <line x1="175" y1="290" x2="180" y2="310" stroke="#64748b" stroke-width="2"/>
  <circle cx="181" cy="312" r="2.5" fill="#64748b"/>
  
  <!-- Right side - Developer working -->
  <circle cx="470" cy="185" r="26" fill="#d4a574"/>
  <!-- Tech professional hair -->
  <path d="M 444 167 Q 444 132 470 132 Q 496 132 496 167" fill="#1a0f0a"/>
  <!-- Tech shirt -->
  <rect x="451" y="216" width="38" height="65" fill="#3b82f6" rx="4"/>
  <!-- Arms typing -->
  <rect x="420" y="230" width="31" height="15" fill="#d4a574" rx="7"/>
  <rect x="489" y="230" width="31" height="15" fill="#d4a574" rx="7"/>
  <!-- Hands -->
  <circle cx="416" cy="238" r="6" fill="#d4a574"/>
  <circle cx="523" cy="238" r="6" fill="#d4a574"/>
  <!-- Dual monitors setup -->
  <rect x="410" y="295" width="65" height="50" fill="#1e293b" stroke="#64748b" stroke-width="2" rx="3"/>
  <rect x="415" y="300" width="55" height="40" fill="#0f172a"/>
  <circle cx="442" cy="325" r="2.5" fill="#3b82f6"/>
  
  <rect x="480" y="310" width="60" height="45" fill="#1e293b" stroke="#64748b" stroke-width="2" rx="3"/>
  <rect x="485" y="315" width="50" height="35" fill="#0f172a"/>
  <circle cx="510" cy="337" r="2.5" fill="#3b82f6"/>
  
  <!-- Monitor stand -->
  <line x1="440" y1="345" x2="450" y2="360" stroke="#64748b" stroke-width="2"/>
  <line x1="500" y1="345" x2="510" y2="360" stroke="#64748b" stroke-width="2"/>
  
  <!-- Keyboard and mouse -->
  <rect x="415" y="365" width="55" height="12" fill="#374151" stroke="#64748b" stroke-width="1" rx="2"/>
  <circle cx="480" cy="380" r="6" fill="#374151" stroke="#64748b" stroke-width="1"/>
  
  <!-- Center communication -->
  <!-- Two people shaking hands/high-five in middle -->
  <circle cx="250" cy="240" r="23" fill="#d4a574"/>
  <!-- Hair -->
  <path d="M 227 223 Q 227 195 250 195 Q 273 195 273 223" fill="#3d2817"/>
  <!-- Casual shirt -->
  <rect x="234" y="268" width="32" height="55" fill="#059669" rx="4"/>
  <!-- Hand extended for handshake -->
  <rect x="265" y="280" width="30" height="13" fill="#d4a574" rx="6"/>
  <!-- Hand -->
  <circle cx="296" cy="286" r="6" fill="#d4a574"/>
  
  <circle cx="350" cy="245" r="23" fill="#d4a574"/>
  <!-- Hair -->
  <path d="M 327 228 Q 327 200 350 200 Q 373 200 373 228" fill="#2d2416"/>
  <!-- Casual shirt -->
  <rect x="336" y="273" width="28" height="52" fill="#f59e0b" rx="4"/>
  <!-- Hand extended -->
  <rect x="305" y="285" width="31" height="13" fill="#d4a574" rx="6"/>
  <!-- Hand -->
  <circle cx="304" cy="291" r="6" fill="#d4a574"/>
  
  <!-- Light bulb idea symbol above collaboration -->
  <circle cx="300" cy="120" r="18" fill="none" stroke="#fbbf24" stroke-width="2"/>
  <path d="M 300 138 L 300 150 M 293 150 L 307 150" stroke="#fbbf24" stroke-width="2" stroke-linecap="round"/>
  
  <!-- Desk plants for ambiance -->
  <g>
    <rect x="55" y="355" width="10" height="20" fill="#92400e" rx="2"/>
    <ellipse cx="60" cy="350" rx="10" ry="12" fill="#059669"/>
    <ellipse cx="52" cy="345" rx="7" ry="10" fill="#10b981"/>
    <ellipse cx="68" cy="345" rx="7" ry="10" fill="#10b981"/>
  </g>
  
  <g>
    <rect x="530" y="360" width="9" height="18" fill="#92400e" rx="2"/>
    <ellipse cx="535" cy="355" rx="9" ry="11" fill="#059669"/>
    <ellipse cx="528" cy="350" rx="6" ry="9" fill="#10b981"/>
    <ellipse cx="542" cy="350" rx="6" ry="9" fill="#10b981"/>
  </g>
  
  <!-- Productivity chart on wall -->
  <rect x="200" y="70" width="80" height="20" fill="#2d3748" stroke="#10b981" stroke-width="1.5" rx="3"/>
  <line x1="210" y1="85" x2="210" y2="75" stroke="#10b981" stroke-width="2"/>
  <line x1="225" y1="82" x2="225" y2="72" stroke="#10b981" stroke-width="2"/>
  <line x1="240" y1="78" x2="240" y2="68" stroke="#10b981" stroke-width="2"/>
  <line x1="255" y1="75" x2="255" y2="65" stroke="#10b981" stroke-width="2"/>
</svg>