<svg width="600" height="500" viewBox="0 0 600 500" fill="none" xmlns="http://www.w3.org/2000/svg">
  <!-- Background -->
  <rect width="600" height="500" fill="#0f1419"/>
  
  <!-- Window light -->
  <rect x="20" y="20" width="200" height="150" fill="#2a3f5f" opacity="0.3" rx="8"/>
  <line x1="120" y1="20" x2="120" y2="170" stroke="#4a6fa5" stroke-width="1" opacity="0.3"/>
  <line x1="20" y1="95" x2="220" y2="95" stroke="#4a6fa5" stroke-width="1" opacity="0.3"/>
  
  <!-- Desk -->
  <rect x="80" y="340" width="440" height="35" fill="#8b6f47" rx="6"/>
  <rect x="60" y="375" width="480" height="25" fill="#6b5535"/>
  
  <!-- Desk legs -->
  <rect x="100" y="375" width="25" height="105" fill="#5a4a2a" rx="4"/>
  <rect x="475" y="375" width="25" height="105" fill="#5a4a2a" rx="4"/>
  
  <!-- Monitor -->
  <rect x="320" y="180" width="240" height="160" fill="#1a1a2e" rx="8" stroke="#2a3a4e" stroke-width="3"/>
  <rect x="335" y="195" width="210" height="130" fill="#1e3a5f"/>
  
  <!-- Code on screen -->
  <line x1="350" y1="210" x2="530" y2="210" stroke="#4ade80" stroke-width="2" opacity="0.7"/>
  <line x1="350" y1="225" x2="520" y2="225" stroke="#60a5fa" stroke-width="2" opacity="0.7"/>
  <line x1="350" y1="240" x2="535" y2="240" stroke="#fbbf24" stroke-width="2" opacity="0.7"/>
  <line x1="350" y1="255" x2="515" y2="255" stroke="#f87171" stroke-width="2" opacity="0.7"/>
  <line x1="350" y1="270" x2="525" y2="270" stroke="#4ade80" stroke-width="2" opacity="0.7"/>
  <line x1="350" y1="285" x2="510" y2="285" stroke="#60a5fa" stroke-width="2" opacity="0.7"/>
  <line x1="350" y1="300" x2="530" y2="300" stroke="#fbbf24" stroke-width="2" opacity="0.7"/>
  
  <!-- Monitor stand -->
  <rect x="400" y="315" width="100" height="25" fill="#333" rx="4"/>
  
  <!-- Keyboard -->
  <rect x="150" y="330" width="200" height="20" fill="#2a2a3e" rx="3"/>
  
  <!-- Mouse -->
  <ellipse cx="370" cy="350" rx="20" ry="14" fill="#333"/>
  
  <!-- Person sitting -->
  <!-- Head -->
  <circle cx="140" cy="100" r="32" fill="#d4a574"/>
  <path d="M 108 100 Q 108 75 140 70 Q 172 75 172 100" fill="#3d2817"/>
  
  <!-- Face -->
  <circle cx="130" cy="95" r="4" fill="#333"/>
  <circle cx="150" cy="95" r="4" fill="#333"/>
  <path d="M 130 110 Q 140 116 150 110" stroke="#333" stroke-width="2" fill="none"/>
  
  <!-- Torso -->
  <ellipse cx="140" cy="170" rx="40" ry="60" fill="#8b5cf6"/>
  
  <!-- Arms bent over keyboard -->
  <path d="M 100 160 Q 80 180 85 220" stroke="#d4a574" stroke-width="18" stroke-linecap="round" fill="none"/>
  <path d="M 180 160 Q 200 180 195 220" stroke="#d4a574" stroke-width="18" stroke-linecap="round" fill="none"/>
  
  <!-- Hands -->
  <circle cx="85" cy="225" r="14" fill="#d4a574"/>
  <circle cx="195" cy="225" r="14" fill="#d4a574"/>
  
  <!-- Legs -->
  <rect x="128" y="230" width="14" height="95" fill="#2a2a3e" rx="7"/>
  <rect x="146" y="230" width="14" height="95" fill="#2a2a3e" rx="7"/>
  
  <!-- Shoes -->
  <ellipse cx="135" cy="330" rx="10" ry="7" fill="#1a1a1a"/>
  <ellipse cx="153" cy="330" rx="10" ry="7" fill="#1a1a1a"/>
  
  <!-- Coffee cup -->
  <ellipse cx="30" cy="340" rx="16" ry="12" fill="#8b4513" opacity="0.8"/>
  <ellipse cx="30" cy="338" rx="16" ry="8" fill="#a0522d"/>
  
  <!-- Decorative elements (stickers on desk) -->
  <rect x="280" y="350" width="8" height="8" fill="#ec4899" opacity="0.6" rx="1"/>
  <rect x="295" y="355" width="8" height="8" fill="#8b5cf6" opacity="0.6" rx="1"/>
</svg>