<svg width="600" height="500" viewBox="0 0 600 500" fill="none" xmlns="http://www.w3.org/2000/svg">
  <!-- Background gradient simulation -->
  <rect width="600" height="500" fill="#0f1419"/>
  
  <!-- Modern office building silhouette -->
  <rect x="50" y="80" width="500" height="340" fill="#1f2937" stroke="#10b981" stroke-width="2" rx="12"/>
  
  <!-- Windows grid -->
  <g opacity="0.3">
    <rect x="70" y="100" width="25" height="25" fill="#6366f1" rx="2"/>
    <rect x="105" y="100" width="25" height="25" fill="#6366f1" rx="2"/>
    <rect x="140" y="100" width="25" height="25" fill="#6366f1" rx="2"/>
    <rect x="175" y="100" width="25" height="25" fill="#6366f1" rx="2"/>
    <rect x="210" y="100" width="25" height="25" fill="#6366f1" rx="2"/>
    
    <rect x="70" y="145" width="25" height="25" fill="#6366f1" rx="2"/>
    <rect x="105" y="145" width="25" height="25" fill="#6366f1" rx="2"/>
    <rect x="140" y="145" width="25" height="25" fill="#6366f1" rx="2"/>
    <rect x="175" y="145" width="25" height="25" fill="#6366f1" rx="2"/>
    <rect x="210" y="145" width="25" height="25" fill="#6366f1" rx="2"/>
  </g>
  
  <!-- Background office space -->
  <rect x="60" y="120" width="480" height="280" fill="#2d3748" opacity="0.6" rx="8"/>
  
  <!-- Person 1 - Front left, presenting to group -->
  <circle cx="100" cy="200" r="24" fill="#d4a574"/>
  <!-- Hair -->
  <path d="M 76 184 Q 76 155 100 155 Q 124 155 124 184" fill="#3d2817"/>
  <!-- Business attire -->
  <rect x="83" y="228" width="34" height="60" fill="#1e40af" rx="4"/>
  <!-- Arm pointing to presentation -->
  <rect x="55" y="240" width="28" height="14" fill="#d4a574" rx="6"/>
  <!-- Other arm -->
  <rect x="117" y="243" width="26" height="13" fill="#d4a574" rx="6"/>
  <!-- Hands -->
  <circle cx="52" cy="247" r="6" fill="#d4a574"/>
  <circle cx="145" cy="249" r="6" fill="#d4a574"/>
  <!-- Legs -->
  <rect x="95" y="288" width="8" height="32" fill="#2d3748" rx="3"/>
  <rect x="113" y="288" width="8" height="32" fill="#2d3748" rx="3"/>
  
  <!-- Person 2 - Listening, sitting -->
  <circle cx="200" cy="250" r="22" fill="#d4a574"/>
  <!-- Hair -->
  <path d="M 178 235 Q 178 211 200 211 Q 222 211 222 235" fill="#2d2416"/>
  <!-- Casual shirt -->
  <rect x="186" y="277" width="28" height="48" fill="#059669" rx="4"/>
  <!-- Arms relaxed -->
  <rect x="164" y="287" width="22" height="11" fill="#d4a574" rx="5"/>
  <rect x="214" y="287" width="22" height="11" fill="#d4a574" rx="5"/>
  <!-- Hands -->
  <circle cx="161" cy="292" r="5" fill="#d4a574"/>
  <circle cx="238" cy="292" r="5" fill="#d4a574"/>
  <!-- Chair back -->
  <rect x="175" y="320" width="50" height="25" fill="#2d3748" stroke="#64748b" stroke-width="1" rx="4"/>
  
  <!-- Person 3 - Right side, engaged -->
  <circle cx="320" cy="230" r="23" fill="#d4a574"/>
  <!-- Hair -->
  <path d="M 297 214 Q 297 187 320 187 Q 343 187 343 214" fill="#1a0f0a"/>
  <!-- Professional shirt -->
  <rect x="304" y="258" width="32" height="54" fill="#8b5cf6" rx="4"/>
  <!-- Arms crossed, attentive -->
  <rect x="278" y="270" width="26" height="13" fill="#d4a574" rx="6"/>
  <rect x="336" y="270" width="26" height="13" fill="#d4a574" rx="6"/>
  <!-- Hands -->
  <circle cx="275" cy="276" r="5" fill="#d4a574"/>
  <circle cx="363" cy="276" r="5" fill="#d4a574"/>
  
  <!-- Person 4 - Background right -->
  <circle cx="430" cy="245" r="20" fill="#d4a574"/>
  <!-- Hair -->
  <path d="M 410 231 Q 410 206 430 206 Q 450 206 450 231" fill="#3d2817"/>
  <!-- Shirt -->
  <rect x="417" y="270" width="26" height="45" fill="#f59e0b" rx="4"/>
  <!-- Arms -->
  <rect x="395" y="278" width="22" height="10" fill="#d4a574" rx="5"/>
  <rect x="443" y="278" width="22" height="10" fill="#d4a574" rx="5"/>
  <!-- Hands -->
  <circle cx="392" cy="283" r="5" fill="#d4a574"/>
  <circle cx="467" cy="283" r="5" fill="#d4a574"/>
  
  <!-- Person 5 - Far background, standing -->
  <circle cx="540" cy="260" r="21" fill="#d4a574"/>
  <!-- Hair -->
  <path d="M 519 246 Q 519 220 540 220 Q 561 220 561 246" fill="#2d2416"/>
  <!-- Shirt -->
  <rect x="526" y="286" width="28" height="50" fill="#06b6d4" rx="4"/>
  <!-- Arms -->
  <rect x="503" y="295" width="23" height="11" fill="#d4a574" rx="5"/>
  <rect x="554" y="295" width="23" height="11" fill="#d4a574" rx="5"/>
  
  <!-- Speech bubbles showing communication -->
  <g opacity="0.4">
    <path d="M 130 140 Q 160 120 190 140 L 190 170 Q 160 185 130 170 Z" fill="none" stroke="#10b981" stroke-width="2"/>
    <circle cx="140" cy="155" r="2" fill="#10b981"/>
    <circle cx="150" cy="160" r="1.5" fill="#10b981"/>
    <circle cx="160" cy="158" r="1" fill="#10b981"/>
  </g>
  
  <!-- Connection lines showing network/collaboration -->
  <line x1="130" y1="220" x2="200" y2="250" stroke="#10b981" stroke-width="1.5" stroke-dasharray="3,3" opacity="0.3"/>
  <line x1="150" y1="200" x2="320" y2="230" stroke="#10b981" stroke-width="1.5" stroke-dasharray="3,3" opacity="0.3"/>
  <line x1="280" y1="250" x2="430" y2="245" stroke="#10b981" stroke-width="1.5" stroke-dasharray="3,3" opacity="0.3"/>
  
  <!-- Growth chart indicator -->
  <g>
    <rect x="480" y="385" width="100" height="4" fill="#2d3748" rx="2"/>
    <rect x="480" y="385" width="75" height="4" fill="#10b981" rx="2"/>
  </g>
  
  <!-- Title decoration -->
  <circle cx="300" cy="50" r="20" fill="#10b981" opacity="0.1"/>
</svg>