<svg width="600" height="400" viewBox="0 0 600 400" fill="none" xmlns="http://www.w3.org/2000/svg">
  <!-- Background -->
  <rect width="600" height="400" fill="#0f1419"/>
  
  <!-- Question mark shape -->
  <g transform="translate(300, 200)">
    <!-- Large question mark -->
    <path d="M -20 -100 Q -50 -100 -50 -70 Q -50 -40 -20 -30 Q 10 -20 10 0 L 10 30" 
          fill="none" stroke="#8b5cf6" stroke-width="8" stroke-linecap="round" stroke-linejoin="round"/>
    
    <!-- Dot -->
    <circle cx="0" cy="70" r="12" fill="#ec4899"/>
  </g>
  
  <!-- Light bulb icons (ideas) -->
  <g transform="translate(120, 100)">
    <circle cx="0" cy="-10" r="15" fill="none" stroke="#fbbf24" stroke-width="2"/>
    <rect x="-10" y="5" width="20" height="20" fill="none" stroke="#fbbf24" stroke-width="2" rx="2"/>
    <line x1="-6" y1="25" x2="6" y2="25" stroke="#fbbf24" stroke-width="2"/>
    <line x1="-6" y1="32" x2="6" y2="32" stroke="#fbbf24" stroke-width="2"/>
  </g>
  
  <g transform="translate(480, 280)">
    <circle cx="0" cy="-10" r="15" fill="none" stroke="#fbbf24" stroke-width="2"/>
    <rect x="-10" y="5" width="20" height="20" fill="none" stroke="#fbbf24" stroke-width="2" rx="2"/>
    <line x1="-6" y1="25" x2="6" y2="25" stroke="#fbbf24" stroke-width="2"/>
    <line x1="-6" y1="32" x2="6" y2="32" stroke="#fbbf24" stroke-width="2"/>
  </g>
</svg>